<svg width="36" height="36" viewBox="0 0 36 36" fill="none" xmlns="http://www.w3.org/2000/svg">
<path d="M22.7953 23.8185H12.3961C12.1043 23.8185 11.8652 23.5794 11.8652 23.2876V12.9165C11.8652 12.7231 11.707 12.5649 11.5137 12.5649C11.3203 12.5649 11.1621 12.7231 11.1621 12.9165V23.2876C11.1621 23.9696 11.7141 24.5216 12.3961 24.5216H22.7953C22.9887 24.5216 23.1469 24.3634 23.1469 24.17C23.1469 23.9767 22.9922 23.8185 22.7953 23.8185Z" fill="white"/>
<path d="M30.4102 13.588C30.7969 13.588 31.1133 13.2716 31.1133 12.8849C31.1133 12.4981 30.7969 12.1817 30.4102 12.1817H27.9598V10.1849C27.9598 8.82783 26.8559 7.72393 25.4988 7.72393H24.5215V5.35791C24.5215 4.97119 24.2051 4.65479 23.8184 4.65479C23.4316 4.65479 23.1152 4.97119 23.1152 5.35791V7.72393H21.4805V5.35791C21.4805 4.97119 21.1641 4.65479 20.7773 4.65479C20.3906 4.65479 20.0742 4.97119 20.0742 5.35791V7.72393H18.4395V5.35791C18.4395 4.97119 18.123 4.65479 17.7363 4.65479C17.3496 4.65479 17.0332 4.97119 17.0332 5.35791V7.72393H15.3984V5.35791C15.3984 4.97119 15.082 4.65479 14.6953 4.65479C14.3086 4.65479 13.9922 4.97119 13.9922 5.35791V7.72393H10.9758C9.61875 7.72393 8.51484 8.82783 8.51484 10.1849V12.1817H6.06445C5.67773 12.1817 5.36133 12.4981 5.36133 12.8849C5.36133 13.2716 5.67773 13.588 6.06445 13.588H8.51484V15.2228H6.06445C5.67773 15.2228 5.36133 15.5392 5.36133 15.9259C5.36133 16.3126 5.67773 16.629 6.06445 16.629H8.51484V18.2638H6.06445C5.67773 18.2638 5.36133 18.5802 5.36133 18.9669C5.36133 19.3536 5.67773 19.67 6.06445 19.67H8.51484V21.3048H6.06445C5.67773 21.3048 5.36133 21.6212 5.36133 22.0079C5.36133 22.3946 5.67773 22.711 6.06445 22.711H8.51484V24.7079C8.51484 26.0649 9.61875 27.1688 10.9758 27.1688H12.0586V29.7177C12.0586 30.1044 12.375 30.4208 12.7617 30.4208C13.1484 30.4208 13.4648 30.1044 13.4648 29.7177V27.1688H15.0996V29.7177C15.0996 30.1044 15.416 30.4208 15.8027 30.4208C16.1895 30.4208 16.5059 30.1044 16.5059 29.7177V27.1688H18.1406V29.7177C18.1406 30.1044 18.457 30.4208 18.8438 30.4208C19.2305 30.4208 19.5469 30.1044 19.5469 29.7177V27.1688H21.1816V29.7177C21.1816 30.1044 21.498 30.4208 21.8848 30.4208C22.2715 30.4208 22.5879 30.1044 22.5879 29.7177V27.1688H25.4988C26.8559 27.1688 27.9598 26.0649 27.9598 24.7079V22.711H30.4102C30.7969 22.711 31.1133 22.3946 31.1133 22.0079C31.1133 21.6212 30.7969 21.3048 30.4102 21.3048H27.9598V19.67H30.4102C30.7969 19.67 31.1133 19.3536 31.1133 18.9669C31.1133 18.5802 30.7969 18.2638 30.4102 18.2638H27.9598V16.629H30.4102C30.7969 16.629 31.1133 16.3126 31.1133 15.9259C31.1133 15.5392 30.7969 15.2228 30.4102 15.2228H27.9598V13.588H30.4102ZM26.5535 24.7044C26.5535 25.2845 26.0789 25.7591 25.4988 25.7591H10.9758C10.3957 25.7591 9.92109 25.2845 9.92109 24.7044V10.1849C9.92109 9.60479 10.3957 9.13018 10.9758 9.13018H25.4988C26.0789 9.13018 26.5535 9.60479 26.5535 10.1849V24.7044Z" fill="white"/>
<path d="M14.3305 18.3305H16.0988L16.4855 19.336H17.4559L15.684 14.9133H14.7383L13.0156 19.336H13.9648L14.3305 18.3305ZM15.2023 15.9434L15.8105 17.5852H14.6047L15.2023 15.9434ZM18.8234 17.6696H19.407C19.8113 17.6696 20.1207 17.6485 20.3352 17.6063C20.4934 17.5711 20.648 17.5008 20.7992 17.3954C20.9504 17.2899 21.077 17.1458 21.1754 16.9594C21.2738 16.7731 21.323 16.5446 21.323 16.2739C21.323 15.9223 21.2387 15.634 21.0664 15.4125C20.8941 15.1911 20.6832 15.0469 20.4301 14.9801C20.2648 14.9344 19.9098 14.9133 19.3684 14.9133H17.9305V19.336H18.8234V17.6696ZM18.8234 15.6622H19.2559C19.5793 15.6622 19.7902 15.6727 19.8992 15.6938C20.0434 15.7184 20.1629 15.7852 20.2578 15.8907C20.3527 15.9961 20.3984 16.1297 20.3984 16.2879C20.3984 16.418 20.3633 16.534 20.2965 16.6325C20.2297 16.7309 20.1348 16.8047 20.0188 16.8504C19.8992 16.8961 19.6637 16.9208 19.3121 16.9208H18.8234V15.6622ZM22.0262 14.9133H22.9191V19.336H22.0262V14.9133Z" fill="white"/>
</svg>
