<svg width="36" height="36" viewBox="0 0 36 36" fill="none" xmlns="http://www.w3.org/2000/svg">
<g clip-path="url(#clip0_503_173)">
<path d="M12.137 10.8258L4.96127 18.0026L12.137 25.1763C12.9385 25.9788 12.9385 27.2808 12.137 28.0823C11.7342 28.4851 11.2111 28.6845 10.684 28.6845C10.1568 28.6845 9.63377 28.4851 9.23095 28.0823L0.602175 19.4546C0.216824 19.0702 0 18.5472 0 18.0026C0 17.459 0.216824 16.9349 0.602175 16.5495L9.23095 7.91973C10.0335 7.1182 11.3345 7.1182 12.137 7.91973C12.9385 8.72229 12.9385 10.0212 12.137 10.8258ZM35.3978 16.5485L26.7701 7.91871C25.9675 7.11718 24.6666 7.11718 23.864 7.91871C23.0615 8.72126 23.0615 10.0222 23.864 10.8248L31.0387 18.0015L23.864 25.1763C23.0615 25.9788 23.0615 27.2808 23.864 28.0823C24.2668 28.4851 24.7909 28.6845 25.317 28.6845C25.8432 28.6845 26.3683 28.4851 26.7701 28.0823L35.3978 19.4546C35.7832 19.0692 36 18.5462 36 18.0015C36 17.459 35.7832 16.9339 35.3978 16.5485ZM21.592 3.93675C20.4863 3.6521 19.3713 4.32004 19.0898 5.41752L12.9242 29.5641C12.6446 30.6637 13.3075 31.7837 14.406 32.0653C14.5776 32.1095 14.7492 32.1301 14.9167 32.1301C15.8354 32.1301 16.6698 31.5104 16.9071 30.5835L23.0728 6.4369C23.3543 5.33634 22.6905 4.21728 21.592 3.93675Z" fill="white"/>
</g>
<defs>
<clipPath id="clip0_503_173">
<rect width="36" height="36" fill="white"/>
</clipPath>
</defs>
</svg>
