<svg width="36" height="36" viewBox="0 0 36 36" fill="none" xmlns="http://www.w3.org/2000/svg">
<g clip-path="url(#clip0_503_201)">
<path d="M3.96479 5.15112C3.78434 5.15112 3.60844 5.22403 3.48085 5.35163C3.35416 5.47831 3.28125 5.65512 3.28125 5.83467C3.28125 6.01421 3.35416 6.19102 3.48085 6.31771C3.60844 6.4453 3.78434 6.51821 3.96479 6.51821C4.14434 6.51821 4.32024 6.4453 4.44783 6.31771C4.57543 6.19102 4.64834 6.01421 4.64834 5.83467C4.64834 5.65512 4.57543 5.47831 4.44783 5.35163C4.32024 5.22403 4.14434 5.15112 3.96479 5.15112Z" fill="white"/>
<path d="M6.63533 5.35163C6.50774 5.22403 6.33184 5.15112 6.15229 5.15112C5.97184 5.15112 5.79594 5.22403 5.66835 5.35163C5.54166 5.47831 5.46875 5.65512 5.46875 5.83467C5.46875 6.01421 5.54166 6.19102 5.66835 6.31771C5.79594 6.4453 5.97184 6.51821 6.15229 6.51821C6.33184 6.51821 6.50774 6.4453 6.63533 6.31771C6.76293 6.19102 6.83584 6.01421 6.83584 5.83467C6.83584 5.65512 6.76293 5.47831 6.63533 5.35163Z" fill="white"/>
<path d="M3.96479 17.3164C3.78434 17.3164 3.60844 17.3893 3.48085 17.5169C3.35416 17.6436 3.28125 17.8204 3.28125 18C3.28125 18.1795 3.35416 18.3563 3.48085 18.483C3.60844 18.6106 3.78434 18.6835 3.96479 18.6835C4.14434 18.6835 4.32024 18.6106 4.44783 18.483C4.57543 18.3563 4.64834 18.1795 4.64834 18C4.64834 17.8204 4.57543 17.6436 4.44783 17.5169C4.32024 17.3893 4.14434 17.3164 3.96479 17.3164Z" fill="white"/>
<path d="M6.63533 17.5169C6.50774 17.3893 6.33184 17.3164 6.15229 17.3164C5.97184 17.3164 5.79594 17.3893 5.66835 17.5169C5.54166 17.6436 5.46875 17.8204 5.46875 18C5.46875 18.1804 5.54166 18.3563 5.66835 18.483C5.79594 18.6106 5.97184 18.6835 6.15229 18.6835C6.33184 18.6835 6.50774 18.6106 6.63533 18.483C6.76293 18.3563 6.83584 18.1804 6.83584 18C6.83584 17.8204 6.76293 17.6436 6.63533 17.5169Z" fill="white"/>
<path d="M3.96479 29.4817C3.78434 29.4817 3.60844 29.5546 3.48085 29.6822C3.35416 29.8089 3.28125 29.9857 3.28125 30.1652C3.28125 30.3457 3.35416 30.5216 3.48085 30.6483C3.60844 30.7759 3.78434 30.8488 3.96479 30.8488C4.14434 30.8488 4.32024 30.7759 4.44783 30.6483C4.57543 30.5216 4.64834 30.3448 4.64834 30.1652C4.64834 29.9857 4.57543 29.8098 4.44783 29.6822C4.32024 29.5546 4.14434 29.4817 3.96479 29.4817Z" fill="white"/>
<path d="M6.63533 29.6822C6.50774 29.5546 6.33184 29.4817 6.15229 29.4817C5.97184 29.4817 5.79594 29.5546 5.66835 29.6822C5.54166 29.8098 5.46875 29.9857 5.46875 30.1652C5.46875 30.3448 5.54166 30.5216 5.66835 30.6483C5.79594 30.7759 5.97184 30.8488 6.15229 30.8488C6.33184 30.8488 6.50774 30.7759 6.63533 30.6483C6.76293 30.5216 6.83584 30.3457 6.83584 30.1652C6.83584 29.9857 6.76293 29.8089 6.63533 29.6822Z" fill="white"/>
<path d="M35.3165 11.2137C35.694 11.2137 36 10.9077 36 10.5302V1.13935C36 0.761856 35.694 0.455811 35.3165 0.455811H0.683544C0.306046 0.455811 0 0.761856 0 1.13935V10.5302C0 10.9077 0.306046 11.2137 0.683544 11.2137H2.67676V12.6212H0.683544C0.306046 12.6212 0 12.9272 0 13.3047V22.6955C0 23.073 0.306046 23.3791 0.683544 23.3791H2.67676V24.7865H0.683544C0.306046 24.7865 0 25.0926 0 25.4701V34.8609C0 35.2384 0.306046 35.5444 0.683544 35.5444H35.3165C35.694 35.5444 36 35.2384 36 34.8609V25.4701C36 25.0926 35.694 24.7865 35.3165 24.7865H33.3232V23.3791H35.3165C35.694 23.3791 36 23.073 36 22.6955V13.3047C36 12.9272 35.694 12.6212 35.3165 12.6212H33.3232V11.2137H35.3165ZM34.6329 9.84662H31.0634V1.8229H34.6329V9.84662ZM26.1408 9.84662V1.8229H29.6963V9.84662H26.1408ZM1.36709 1.8229H24.7737V9.84662H1.36709V1.8229ZM1.36709 13.9883H24.7737V22.012H1.36709V13.9883ZM26.1408 22.012V13.9883H29.6963V22.012H26.1408ZM1.36709 26.1536H24.7737V34.1773H1.36709V26.1536ZM29.6963 26.1536V34.1773H26.1408V26.1536H29.6963ZM34.6329 34.1773H31.0634V26.1536H34.6329V34.1773ZM31.9562 24.7865H4.04385V23.3791H31.9562V24.7865ZM34.6329 22.012H31.0634V13.9883H34.6329V22.012ZM31.9562 12.6212H4.04385V11.2137H31.9562V12.6212Z" fill="white"/>
</g>
<defs>
<clipPath id="clip0_503_201">
<rect width="36" height="36" fill="white"/>
</clipPath>
</defs>
</svg>
