<svg width="36" height="36" viewBox="0 0 36 36" fill="none" xmlns="http://www.w3.org/2000/svg">
<path fill-rule="evenodd" clip-rule="evenodd" d="M13.5408 4.35474C10.2985 4.4313 7.2148 5.77308 4.94874 8.09329C2.68267 10.4135 1.41406 13.5281 1.41406 16.7713C1.41406 20.0145 2.68267 23.129 4.94874 25.4493C7.2148 27.7695 10.2985 29.1112 13.5408 29.1878H14.0947V19.3432C14.0947 18.6094 14.6555 17.6678 15.3962 17.6678H25.9193C25.9193 17.2594 25.9609 16.9755 25.9609 16.754C25.9444 13.467 24.63 10.3196 22.3037 7.9972C19.9775 5.67484 16.8279 4.36565 13.5408 4.35474ZM23.4547 15.7086H20.2562C20.1954 13.1301 19.5964 10.5928 18.4978 8.25935C19.8431 9.03395 20.9908 10.1096 21.8508 11.402C22.7108 12.6944 23.2598 14.1685 23.4547 15.7086ZM12.1216 7.54627V15.7086H9.28316C9.49777 11.8178 10.7232 8.74397 12.1216 7.54627ZM12.1216 17.834V25.9894C10.737 24.7917 9.49777 21.7317 9.28316 17.834H12.1216ZM14.9601 15.7086V7.54627C16.3447 8.74397 17.5908 11.8178 17.7985 15.7086H14.9601ZM8.57701 8.25935C7.49719 10.599 6.90141 13.1329 6.82547 15.7086H3.60624C3.80061 14.1666 4.35087 12.6909 5.21355 11.398C6.07623 10.1052 7.2277 9.0307 8.57701 8.25935ZM3.61316 18.187H6.83239C6.89176 20.7575 7.48592 23.2874 8.57701 25.6155C7.23226 24.8446 6.08431 23.7727 5.22311 22.4839C4.36191 21.1951 3.81087 19.7244 3.61316 18.187Z" fill="white"/>
<path fill-rule="evenodd" clip-rule="evenodd" d="M32.8843 19.7725H17.8128C17.3538 19.7725 16.9135 19.9548 16.589 20.2794C16.2644 20.604 16.082 21.0442 16.082 21.5032V29.9148C16.082 30.3738 16.2644 30.814 16.589 31.1386C16.9135 31.4632 17.3538 31.6455 17.8128 31.6455H32.8843C33.3434 31.6455 33.7836 31.4632 34.1082 31.1386C34.4328 30.814 34.6151 30.3738 34.6151 29.9148V21.5032C34.6151 21.0442 34.4328 20.604 34.1082 20.2794C33.7836 19.9548 33.3434 19.7725 32.8843 19.7725ZM19.8413 29.9148C19.8486 29.6493 19.8036 29.3849 19.7088 29.1368C19.6139 28.8887 19.4712 28.6618 19.2886 28.4689C19.106 28.276 18.8872 28.121 18.6446 28.0127C18.4021 27.9044 18.1406 27.845 17.8751 27.8378H17.8197V23.5386C18.3554 23.5517 18.8745 23.3522 19.2636 22.9838C19.6528 22.6155 19.8803 22.1081 19.8966 21.5725V21.524H30.842C30.842 22.0535 31.0504 22.5618 31.4223 22.9388C31.7941 23.3159 32.2995 23.5313 32.829 23.5386H32.8843V27.8655C32.6179 27.8591 32.3529 27.9052 32.1043 28.0012C31.8557 28.0973 31.6285 28.2413 31.4356 28.4252C31.2428 28.6091 31.088 28.8292 30.9802 29.0729C30.8724 29.3166 30.8137 29.5791 30.8074 29.8455V29.9078L19.8413 29.9148Z" fill="white"/>
<path d="M25.3452 28.4677C26.9511 28.4677 28.2529 27.1659 28.2529 25.56C28.2529 23.9542 26.9511 22.6523 25.3452 22.6523C23.7393 22.6523 22.4375 23.9542 22.4375 25.56C22.4375 27.1659 23.7393 28.4677 25.3452 28.4677Z" fill="white"/>
</svg>
