<svg width="36" height="36" viewBox="0 0 36 36" fill="none" xmlns="http://www.w3.org/2000/svg">
<g clip-path="url(#clip0_503_188)">
<path d="M13.4659 5.03833L12.3977 8.67407L11.8151 6.82471H10.3846L9.80237 8.67407L8.73413 5.03833L7.29492 5.46167L9.05786 11.4617L10.4927 11.4756L11.0999 9.54712L11.7074 11.4756L13.1422 11.4617L14.9052 5.46167L13.4659 5.03833Z" fill="white"/>
<path d="M21.8667 5.03833L20.7981 8.67407L20.2158 6.82471H18.7854L18.2031 8.67407L17.1345 5.03833L15.6953 5.46167L17.4586 11.4617L18.8934 11.4756L19.5006 9.54712L20.1078 11.4756L21.5426 11.4617L23.3059 5.46167L21.8667 5.03833Z" fill="white"/>
<path d="M30.2667 5.03833L29.1985 8.67407L28.6162 6.82471H27.1858L26.6031 8.67407L25.5349 5.03833L24.0957 5.46167L25.8586 11.4617L27.2935 11.4756L27.901 9.54712L28.5082 11.4756L29.943 11.4617L31.7059 5.46167L30.2667 5.03833Z" fill="white"/>
<path d="M36 2.25H3V8.77485C1.04128 11.4681 0 14.6498 0 18C0 22.155 1.60364 26.0713 4.51392 29.0244C7.49487 32.072 11.4855 33.75 15.75 33.75C20.0145 33.75 24.0051 32.072 26.9842 29.0266C29.8964 26.0713 31.5 22.155 31.5 18C31.5 16.7286 31.3428 15.4723 31.0437 14.25H36V2.25ZM3 11.6478V14.25H7.24958C7.11877 15.2306 7.04128 16.2341 7.01521 17.25H1.52974C1.63118 15.2793 2.12871 13.3849 3 11.6478ZM1.53618 18.75H7.02048C7.07996 21.1236 7.41284 23.3447 7.97424 25.3123C6.94739 25.8992 5.98726 26.6115 5.10044 27.4323C2.94851 25.0168 1.70405 21.9849 1.53618 18.75ZM6.15264 28.4998C6.86594 27.8442 7.63293 27.27 8.4468 26.7802C9.15315 28.7038 10.0934 30.3062 11.195 31.4955C9.33816 30.8697 7.62905 29.8566 6.15264 28.4998ZM15 32.1683C12.8799 31.7169 11.0016 29.3783 9.8157 26.0542C11.431 25.3111 13.181 24.8809 15 24.787V32.1683ZM15 23.2869C13.0256 23.3791 11.1218 23.8252 9.36057 24.6094C8.87292 22.8325 8.57878 20.8421 8.52012 18.75H15V23.2869ZM15 17.25H8.51521C8.54275 16.2317 8.62668 15.2283 8.76511 14.25H15V17.25ZM16.5 32.1683V24.7869C18.319 24.8808 20.069 25.311 21.6843 26.0541C20.4984 29.3783 18.6201 31.7169 16.5 32.1683ZM22.9799 18.75C22.9212 20.8421 22.6271 22.8325 22.1394 24.6094C20.3782 23.8252 18.4745 23.3791 16.5 23.2869V18.75H22.9799ZM16.5 17.25V14.25H22.735C22.8735 15.2282 22.9574 16.2315 22.9849 17.25H16.5ZM20.3049 31.4955C21.4065 30.3063 22.3468 28.7038 23.0532 26.7801C23.8672 27.27 24.6342 27.8443 25.3476 28.4999C23.8716 29.8566 22.1623 30.8697 20.3049 31.4955ZM26.3996 27.4323C25.5127 26.6115 24.5527 25.8993 23.5258 25.3123C24.0872 23.3447 24.42 21.1235 24.4795 18.75H29.9638C29.7959 21.9841 28.5519 25.0155 26.3996 27.4323ZM24.4848 17.25C24.4588 16.2338 24.3813 15.2305 24.2505 14.25H29.4899C29.7566 15.2277 29.9187 16.2314 29.9717 17.25H24.4848ZM34.5 12.75H4.5V3.75H34.5V12.75Z" fill="white"/>
</g>
<defs>
<clipPath id="clip0_503_188">
<rect width="36" height="36" fill="white"/>
</clipPath>
</defs>
</svg>
