<svg width="110" height="45" viewBox="0 0 110 45" fill="none" xmlns="http://www.w3.org/2000/svg">
<path fill-rule="evenodd" clip-rule="evenodd" d="M18.353 26.6304C18.0925 26.5892 17.8104 26.5524 17.5072 26.5221C17.2028 26.4913 16.9321 26.4761 16.6944 26.4761C15.6315 26.4761 14.7914 26.6563 14.1735 27.0162C13.5557 27.3766 13.2474 27.9579 13.2474 28.7615C13.2474 29.2967 13.3654 29.708 13.6047 29.997C13.8424 30.2849 14.1297 30.4954 14.4659 30.6297C14.8022 30.7639 15.1601 30.8456 15.5391 30.877C15.9187 30.9073 16.2493 30.923 16.5314 30.923C16.8569 30.923 17.1823 30.897 17.5072 30.8456C17.8326 30.7931 18.1136 30.7476 18.353 30.706V26.6304ZM18.353 23.4499C18.353 22.9558 18.2663 22.5542 18.0925 22.2452C17.9187 21.9367 17.6804 21.6948 17.3772 21.52C17.0729 21.3452 16.6996 21.2267 16.2544 21.1645C15.8104 21.1028 15.3169 21.0719 14.776 21.0719C13.6047 21.0719 12.3571 21.2884 11.0354 21.7203C10.7311 21.185 10.5042 20.6812 10.352 20.2071C10.2004 19.7336 10.1246 19.1681 10.1246 18.5089C11.0787 18.1999 12.0322 17.9737 12.9869 17.8298C13.941 17.6858 14.829 17.6133 15.6537 17.6133C17.9084 17.6133 19.6701 18.1285 20.9383 19.1573C22.207 20.1871 22.8407 21.8339 22.8407 24.0977V33.3615C22.0816 33.5883 21.16 33.8058 20.0765 34.0109C18.9919 34.2171 17.7671 34.3199 16.4015 34.3199C15.2952 34.3199 14.2813 34.2274 13.3602 34.0407C12.4386 33.8567 11.6475 33.5482 10.987 33.1147C10.3253 32.6829 9.81572 32.1271 9.45836 31.4468C9.09986 30.7682 8.9209 29.9337 8.9209 28.9455C8.9209 27.9579 9.14375 27.1299 9.58831 26.461C10.0317 25.7921 10.6068 25.2563 11.3118 24.8548C12.0163 24.4532 12.8017 24.1648 13.6691 23.99C14.536 23.8157 15.4041 23.7275 16.2715 23.7275C16.8996 23.7275 17.5932 23.7578 18.353 23.8206V23.4499Z" fill="#FF4238"/>
<path fill-rule="evenodd" clip-rule="evenodd" d="M24.5771 17.9839C24.9026 17.9222 25.2115 17.8757 25.5039 17.8448C25.7968 17.814 26.1166 17.7988 26.4631 17.7988C26.7885 17.7988 27.1083 17.8194 27.4229 17.86C27.7369 17.9017 28.0459 17.9525 28.3502 18.0148C28.4146 18.1181 28.4745 18.2669 28.5292 18.4623C28.5822 18.6582 28.6312 18.8639 28.6751 19.0803C28.7184 19.2963 28.7566 19.5127 28.7891 19.7287C28.8216 19.9451 28.8483 20.1253 28.8706 20.2688C29.347 19.6313 29.9324 19.0598 30.6266 18.5554C31.3202 18.051 32.1877 17.7988 33.2284 17.7988C33.445 17.7988 33.694 17.8091 33.9767 17.8297C34.2571 17.8502 34.464 17.8811 34.594 17.9222C34.6373 18.1284 34.6698 18.3649 34.6914 18.6322C34.7131 18.9001 34.7245 19.1783 34.7245 19.4662C34.7245 19.8163 34.7074 20.1973 34.6755 20.6086C34.643 21.0205 34.5832 21.4112 34.4971 21.7819C34.2571 21.7408 33.9927 21.7202 33.6992 21.7202H33.1628C32.7941 21.7202 32.3826 21.7565 31.9272 21.8284C31.4718 21.9009 31.0381 22.0909 30.6266 22.3999C30.2145 22.7084 29.8731 23.1711 29.6018 23.7891C29.3299 24.4071 29.1954 25.2709 29.1954 26.3835V33.98C28.805 34.0406 28.4146 34.0834 28.0242 34.1029C27.6343 34.1245 27.2548 34.1348 26.886 34.1348C26.5173 34.1348 26.1434 34.1245 25.7644 34.1029C25.3848 34.0834 24.9892 34.0406 24.5771 33.98V17.9839Z" fill="#FF4238"/>
<path fill-rule="evenodd" clip-rule="evenodd" d="M46.4173 24.2527C46.3734 23.2645 46.0862 22.4668 45.555 21.8596C45.0238 21.2524 44.2811 20.9483 43.3276 20.9483C42.243 20.9483 41.4189 21.2373 40.8558 21.8131C40.2921 22.3895 39.9564 23.2028 39.8475 24.2527H46.4173ZM39.815 27.3088C39.9017 28.5448 40.3565 29.4404 41.1812 29.9968C42.0048 30.5526 43.0888 30.8302 44.4333 30.8302C45.1697 30.8302 45.9237 30.7636 46.6932 30.6294C47.4626 30.4952 48.195 30.3053 48.8892 30.0585C49.1268 30.4698 49.3332 30.9633 49.507 31.5408C49.6803 32.1171 49.7777 32.7346 49.7994 33.3937C48.1084 34.0107 46.2002 34.3202 44.0754 34.3202C42.5143 34.3202 41.1755 34.114 40.059 33.7022C38.9424 33.2904 38.0317 32.7194 37.3266 31.9883C36.6222 31.2572 36.1018 30.388 35.7667 29.3788C35.4299 28.3695 35.2617 27.2687 35.2617 26.0749C35.2617 24.9011 35.435 23.7998 35.7821 22.7704C36.1286 21.7411 36.6444 20.846 37.3266 20.0835C38.01 19.3226 38.8552 18.7203 39.864 18.2771C40.8723 17.8349 42.0481 17.613 43.392 17.613C44.5633 17.613 45.604 17.8095 46.5148 18.1997C47.4256 18.5915 48.2001 19.1262 48.8396 19.8059C49.4791 20.4856 49.9618 21.2936 50.2878 22.2298C50.6127 23.1671 50.7751 24.171 50.7751 25.2404C50.7751 25.6322 50.7586 26.0186 50.7267 26.399C50.6936 26.78 50.6554 27.0825 50.6127 27.3088H39.815Z" fill="#FF4238"/>
<path fill-rule="evenodd" clip-rule="evenodd" d="M63.4988 24.2527C63.4555 23.2645 63.1676 22.4668 62.637 21.8596C62.1058 21.2524 61.3632 20.9483 60.4091 20.9483C59.3245 20.9483 58.5003 21.2373 57.9372 21.8131C57.3741 22.3895 57.0378 23.2028 56.9296 24.2527H63.4988ZM56.8965 27.3088C56.9831 28.5448 57.4385 29.4404 58.2627 29.9968C59.0868 30.5526 60.1703 30.8302 61.5148 30.8302C62.2517 30.8302 63.0058 30.7636 63.7752 30.6294C64.5446 30.4952 65.2764 30.3053 65.9712 30.0585C66.2089 30.4698 66.4146 30.9633 66.589 31.5408C66.7623 32.1171 66.8592 32.7346 66.8809 33.3937C65.1904 34.0107 63.2816 34.3202 61.1574 34.3202C59.5958 34.3202 58.2575 34.114 57.141 33.7022C56.0245 33.2904 55.1137 32.7194 54.4087 31.9883C53.7036 31.2572 53.1833 30.388 52.8482 29.3788C52.5113 28.3695 52.3438 27.2687 52.3438 26.0749C52.3438 24.9011 52.517 23.7998 52.8641 22.7704C53.2106 21.7411 53.7264 20.846 54.4087 20.0835C55.092 19.3226 55.9367 18.7203 56.9461 18.2771C57.9538 17.8349 59.1296 17.613 60.4735 17.613C61.6447 17.613 62.6855 17.8095 63.5962 18.1997C64.5076 18.5915 65.2821 19.1262 65.9216 19.8059C66.5605 20.4856 67.0439 21.2936 67.3693 22.2298C67.6942 23.1671 67.8566 24.171 67.8566 25.2404C67.8566 25.6322 67.8401 26.0186 67.8087 26.399C67.7757 26.78 67.7375 27.0825 67.6942 27.3088H56.8965Z" fill="#FF4238"/>
<path fill-rule="evenodd" clip-rule="evenodd" d="M74.1966 30.491C74.457 30.5722 74.7329 30.6241 75.0258 30.6447C75.3188 30.6653 75.6163 30.6761 75.9189 30.6761C77.3296 30.6761 78.4353 30.2848 79.2372 29.5028C80.0391 28.7208 80.4409 27.495 80.4409 25.8277C80.4409 24.3454 80.1913 23.2181 79.6931 22.4459C79.1944 21.6742 78.3481 21.2883 77.1563 21.2883C76.2888 21.2883 75.5793 21.561 75.0258 22.1066C74.4724 22.6521 74.1966 23.512 74.1966 24.6847V30.491ZM69.6113 11.3756C70.3916 11.2522 71.1496 11.1899 71.8877 11.1899C72.6457 11.1899 73.4163 11.2522 74.1966 11.3756V19.5284C74.5214 18.9721 75.0634 18.5142 75.8226 18.1538C76.5818 17.7939 77.4487 17.6132 78.4244 17.6132C79.4002 17.6132 80.3053 17.7788 81.1402 18.1073C81.9741 18.4374 82.6956 18.9363 83.3032 19.6052C83.9096 20.2741 84.3872 21.1135 84.7332 22.1222C85.0809 23.1299 85.2536 24.3243 85.2536 25.7032C85.2536 27.0426 85.0375 28.2419 84.6032 29.302C84.1701 30.3622 83.5414 31.2627 82.7173 32.0036C81.8937 32.745 80.8843 33.3165 79.6931 33.718C78.5008 34.119 77.1563 34.3198 75.6596 34.3198C75.1831 34.3198 74.6787 34.2982 74.1481 34.2576C73.6164 34.217 73.0795 34.1591 72.538 34.0877C71.9966 34.0162 71.4762 33.9242 70.9769 33.8106C70.4782 33.6969 70.0223 33.5681 69.6113 33.4242V11.3756Z" fill="#FF4238"/>
<path fill-rule="evenodd" clip-rule="evenodd" d="M96.0278 26.6304C95.7679 26.5892 95.4852 26.5524 95.182 26.5221C94.8776 26.4913 94.6075 26.4761 94.3692 26.4761C93.3063 26.4761 92.4667 26.6563 91.8489 27.0162C91.2311 27.3766 90.9222 27.9579 90.9222 28.7615C90.9222 29.2967 91.0402 29.708 91.2795 29.997C91.5178 30.2849 91.805 30.4954 92.1413 30.6297C92.477 30.7639 92.8349 30.8456 93.2139 30.877C93.5935 30.9073 93.9241 30.923 94.2068 30.923C94.5317 30.923 94.8571 30.897 95.182 30.8456C95.5074 30.7931 95.7884 30.7476 96.0278 30.706V26.6304ZM96.0278 23.4499C96.0278 22.9558 95.9411 22.5542 95.7679 22.2452C95.5935 21.9367 95.3547 21.6948 95.052 21.52C94.7477 21.3452 94.3744 21.2267 93.9292 21.1645C93.4847 21.1028 92.9917 21.0719 92.4508 21.0719C91.2795 21.0719 90.0313 21.2884 88.7102 21.7203C88.4064 21.185 88.179 20.6812 88.0268 20.2071C87.8752 19.7336 87.7989 19.1681 87.7989 18.5089C88.753 18.1999 89.7071 17.9737 90.6617 17.8298C91.6158 17.6858 92.5038 17.6133 93.3285 17.6133C95.5838 17.6133 97.3455 18.1285 98.6131 19.1573C99.8818 20.1871 100.516 21.8339 100.516 24.0977V33.3615C99.7564 33.5883 98.8353 33.8058 97.7507 34.0109C96.6667 34.2171 95.4424 34.3199 94.0763 34.3199C92.9706 34.3199 91.9555 34.2274 91.035 34.0407C90.1134 33.8567 89.3223 33.5482 88.6618 33.1147C88.0001 32.6829 87.4905 32.1271 87.1332 31.4468C86.7747 30.7682 86.5957 29.9337 86.5957 28.9455C86.5957 27.9579 86.8186 27.1299 87.2631 26.461C87.7065 25.7921 88.2816 25.2563 88.9866 24.8548C89.6911 24.4532 90.477 24.1648 91.3439 23.99C92.2114 23.8157 93.0789 23.7275 93.9463 23.7275C94.5744 23.7275 95.268 23.7578 96.0278 23.8206V23.4499Z" fill="#FF4238"/>
</svg>
