<svg width="481" height="429" viewBox="0 0 481 429" fill="none" xmlns="http://www.w3.org/2000/svg">
<path d="M42.31 344.44C42.5502 344.852 42.6938 345.314 42.73 345.79C42.6954 346.203 42.5524 346.6 42.3154 346.941C42.0783 347.282 41.7557 347.554 41.38 347.73L34.14 352.79C33.7073 353.059 33.2093 353.204 32.7 353.21C31.61 353.21 30.85 352.21 30.43 351.61C28.66 349.16 26.43 347.48 23.18 347.48C20.9617 347.556 18.8596 348.49 17.3171 350.086C15.7747 351.682 14.9125 353.815 14.9125 356.035C14.9125 358.255 15.7747 360.387 17.3171 361.983C18.8596 363.58 20.9617 364.514 23.18 364.59C26.47 364.59 28.66 362.9 30.43 360.46C30.85 359.87 31.61 358.86 32.7 358.86C33.21 358.861 33.7093 359.007 34.14 359.28L41.38 364.33C41.7557 364.506 42.0783 364.778 42.3154 365.119C42.5524 365.459 42.6954 365.856 42.73 366.27C42.6951 366.746 42.5515 367.208 42.31 367.62C39.11 374.28 30.68 378.16 22.31 378.16C9 378.16 0 368.3 0 356.24C0 343.77 9.78 333.91 22.76 333.91C30.93 333.91 39.11 337.78 42.31 344.44Z" fill="#202A44"/>
<path d="M77.0001 384.65C75.2301 390.55 72.6201 393.58 69.4101 395.65C66.1513 397.608 62.422 398.645 58.6201 398.65C55.2088 398.671 51.8478 397.828 48.8501 396.2C47.7644 395.595 46.7569 394.86 45.8501 394.01C45.3599 393.545 45.0605 392.914 45.0101 392.24C45.057 391.598 45.2897 390.983 45.6801 390.47L50.2401 383.73C50.4311 383.458 50.6816 383.232 50.9727 383.071C51.2638 382.91 51.5878 382.817 51.9201 382.8C52.7292 382.798 53.5101 383.097 54.1101 383.64C55.508 384.684 57.1791 385.299 58.9201 385.41C59.9684 385.455 61.0029 385.158 61.8683 384.565C62.7338 383.972 63.3835 383.114 63.7201 382.12L65.3201 376.98H57.6501C57.0657 376.977 56.4993 376.778 56.0409 376.415C55.5825 376.053 55.2583 375.548 55.1201 374.98L44.4201 338.57C44.2365 337.996 44.1223 337.401 44.0801 336.8C44.0801 335.96 44.6701 335.28 45.8501 335.28H58.3301C59.4201 335.28 60.1001 336.28 60.3301 337.28L67.2401 365.94H68.3401L75.5901 337.28C75.8401 336.28 76.5101 335.28 77.5901 335.28H89.3401C90.5201 335.28 91.1101 335.96 91.1101 336.8C91.073 337.401 90.9622 337.996 90.7801 338.57L77.0001 384.65Z" fill="#202A44"/>
<path d="M117.08 364.67C118.788 364.704 120.467 364.228 121.903 363.304C123.34 362.38 124.468 361.049 125.145 359.48C125.822 357.912 126.017 356.178 125.705 354.499C125.392 352.819 124.587 351.271 123.391 350.051C122.196 348.832 120.664 347.996 118.991 347.65C117.318 347.304 115.581 347.464 113.999 348.11C112.418 348.755 111.065 349.857 110.112 351.275C109.159 352.692 108.65 354.362 108.65 356.07C108.635 357.189 108.842 358.3 109.259 359.339C109.675 360.378 110.293 361.324 111.076 362.123C111.86 362.922 112.793 363.559 113.824 363.996C114.854 364.433 115.961 364.662 117.08 364.67ZM108.56 338C110.76 335.47 114.88 333.87 119.69 333.87C130.56 333.87 140.17 342.13 140.17 355.87C140.17 369.61 130.56 378.13 119.6 378.13C115.81 378.13 110.84 377.13 108.6 374.25V375C108.605 375.255 108.559 375.509 108.464 375.746C108.369 375.983 108.227 376.199 108.047 376.38C107.867 376.561 107.652 376.704 107.416 376.8C107.179 376.896 106.925 376.944 106.67 376.94H96.0898C95.8336 376.945 95.5789 376.899 95.341 376.803C95.1032 376.708 94.8872 376.565 94.7059 376.384C94.5247 376.203 94.382 375.987 94.2864 375.749C94.1908 375.511 94.1444 375.256 94.1498 375V319.83C94.1458 319.574 94.1932 319.32 94.2893 319.083C94.3853 318.845 94.5281 318.63 94.709 318.449C94.89 318.268 95.1055 318.125 95.3427 318.029C95.5799 317.933 95.834 317.886 96.0898 317.89H106.63C107.138 317.907 107.62 318.118 107.979 318.478C108.337 318.838 108.545 319.322 108.56 319.83V338Z" fill="#202A44"/>
<path d="M157.87 351.1H171.69C171.1 347.73 167.99 345.88 164.78 345.88C161.57 345.88 158.46 347.73 157.87 351.1ZM172.87 361.64C173.29 361.05 174.04 360.04 175.14 360.04C175.647 360.04 176.144 360.186 176.57 360.46L183.74 364.93C184.117 365.08 184.443 365.333 184.682 365.66C184.921 365.987 185.063 366.376 185.09 366.78C185.054 367.256 184.911 367.717 184.67 368.13C181.67 374.53 173.62 378.13 165.2 378.13C151.46 378.13 142.86 368.43 142.86 356.3C142.86 343.82 152.05 333.88 164.94 333.88C178.26 333.88 185.84 344.5 185.84 354.7V356.47C185.84 357.65 185.42 358.91 183.57 358.91H157.57C157.82 362.7 160.77 365.74 165.32 365.74C166.827 365.726 168.307 365.343 169.631 364.623C170.955 363.902 172.081 362.868 172.91 361.61" fill="#202A44"/>
<path d="M204.48 375.12C204.423 375.61 204.188 376.061 203.819 376.388C203.449 376.714 202.973 376.893 202.48 376.89H191.84C191.588 376.895 191.337 376.85 191.103 376.758C190.868 376.665 190.655 376.527 190.474 376.351C190.293 376.175 190.15 375.965 190.051 375.733C189.953 375.501 189.901 375.252 189.9 375V337.11C189.894 336.854 189.941 336.599 190.036 336.361C190.132 336.123 190.275 335.907 190.456 335.726C190.637 335.545 190.853 335.402 191.091 335.306C191.329 335.211 191.584 335.164 191.84 335.17H201.84C202.333 335.167 202.809 335.345 203.179 335.672C203.548 335.999 203.783 336.45 203.84 336.94V339.3C206.37 335.76 210.92 334.41 214.29 334.41H216.66C217.58 334.41 218.93 334.75 218.93 336.94V347.31C218.959 347.66 218.911 348.012 218.79 348.342C218.669 348.671 218.478 348.971 218.229 349.219C217.981 349.468 217.681 349.659 217.352 349.78C217.022 349.901 216.67 349.949 216.32 349.92H212.19C206.62 349.92 204.43 351.35 204.43 356.16L204.48 375.12Z" fill="#202A44"/>
<path d="M241.57 333.91C250.17 333.91 255.39 336.86 257.67 338.63C258.85 339.55 259.1 339.98 259.1 340.57C259.037 341.209 258.806 341.82 258.43 342.34L254.89 348.24C254.741 348.509 254.52 348.731 254.251 348.879C253.982 349.028 253.677 349.097 253.37 349.08C252.366 349.022 251.4 348.675 250.59 348.08C247.523 346.526 244.164 345.636 240.73 345.47C238.2 345.47 235.84 346.22 235.84 348.16C235.84 349 236.34 349.85 237.95 350.35C243.68 352.21 259.95 350.78 259.95 364.01C259.95 371.85 254.22 378.25 240.57 378.25C232.39 378.25 226.07 375.98 222.28 373.03C221.1 372.1 220.76 371.59 220.76 370.58C220.76 369.57 221.01 369.23 221.86 368.14L225.73 362.91C225.894 362.686 226.112 362.507 226.364 362.39C226.616 362.273 226.893 362.221 227.17 362.24C228.51 362.24 229.17 363.24 231.17 364.34C233.98 366.002 237.175 366.905 240.44 366.96C243.14 366.96 245.44 366.28 245.44 364.6C245.44 359.37 222.18 364.77 222.18 348.67C222.18 339.48 229.77 333.92 241.65 333.92" fill="#202A44"/>
<path d="M294.08 356.07C294.062 354.407 293.552 352.786 292.615 351.411C291.678 350.037 290.356 348.97 288.814 348.346C287.272 347.722 285.58 347.568 283.95 347.903C282.321 348.238 280.828 349.048 279.658 350.231C278.488 351.413 277.694 352.915 277.376 354.548C277.058 356.181 277.23 357.871 277.87 359.406C278.511 360.942 279.591 362.253 280.976 363.175C282.36 364.098 283.986 364.59 285.65 364.59C287.896 364.574 290.045 363.668 291.625 362.072C293.205 360.475 294.088 358.316 294.08 356.07ZM308.75 356.16C308.75 368.38 298.47 378.16 285.65 378.16C272.83 378.16 262.56 368.38 262.56 356.16C262.56 343.94 272.84 333.91 285.65 333.91C298.46 333.91 308.75 343.85 308.75 356.16Z" fill="#202A44"/>
<path d="M326.87 357.09C326.87 362.31 329.06 365.68 334.29 365.68C338.84 365.68 342.21 363.07 342.21 357.93V336.93C342.266 336.44 342.502 335.989 342.871 335.662C343.24 335.336 343.717 335.157 344.21 335.16H354.83C355.085 335.156 355.34 335.203 355.577 335.299C355.814 335.395 356.029 335.538 356.21 335.719C356.391 335.9 356.534 336.116 356.63 336.353C356.726 336.59 356.774 336.844 356.77 337.1V375C356.775 375.256 356.729 375.511 356.633 375.749C356.537 375.987 356.395 376.203 356.214 376.384C356.032 376.565 355.816 376.708 355.578 376.803C355.341 376.899 355.086 376.945 354.83 376.94H344.23C343.737 376.943 343.26 376.764 342.891 376.438C342.522 376.111 342.286 375.66 342.23 375.17V373.66C339.62 376.18 336.58 378.21 330.51 378.21C318.88 378.21 312.31 370.71 312.31 359.41V336.94C312.366 336.45 312.602 335.999 312.971 335.672C313.34 335.345 313.817 335.167 314.31 335.17H324.85C325.342 335.167 325.819 335.345 326.188 335.672C326.557 335.999 326.793 336.45 326.85 336.94L326.87 357.09Z" fill="#202A44"/>
<path d="M376.77 375.12C376.713 375.61 376.478 376.061 376.109 376.388C375.74 376.714 375.263 376.893 374.77 376.89H364.13C363.874 376.895 363.619 376.849 363.381 376.753C363.143 376.658 362.927 376.515 362.746 376.334C362.565 376.153 362.422 375.937 362.326 375.699C362.231 375.461 362.184 375.206 362.19 374.95V337.11C362.184 336.854 362.231 336.599 362.326 336.361C362.422 336.123 362.565 335.907 362.746 335.726C362.927 335.545 363.143 335.402 363.381 335.306C363.619 335.211 363.874 335.164 364.13 335.17H374.13C374.623 335.167 375.1 335.345 375.469 335.672C375.838 335.999 376.073 336.45 376.13 336.94V339.3C378.66 335.76 383.21 334.41 386.58 334.41H389C389.93 334.41 391.28 334.75 391.28 336.94V347.31C391.307 347.66 391.258 348.013 391.136 348.342C391.014 348.672 390.821 348.971 390.572 349.219C390.323 349.468 390.023 349.659 389.693 349.78C389.363 349.901 389.01 349.948 388.66 349.92H384.53C378.97 349.92 376.78 351.35 376.78 356.16L376.77 375.12Z" fill="#202A44"/>
<path d="M435.26 344.44C435.507 344.85 435.655 345.312 435.69 345.79C435.653 346.203 435.51 346.599 435.273 346.939C435.036 347.28 434.714 347.552 434.34 347.73L427.09 352.79C426.657 353.059 426.159 353.204 425.65 353.21C424.56 353.21 423.8 352.21 423.38 351.61C421.61 349.16 419.38 347.48 416.13 347.48C413.912 347.556 411.81 348.49 410.267 350.086C408.725 351.682 407.863 353.815 407.863 356.035C407.863 358.255 408.725 360.387 410.267 361.983C411.81 363.58 413.912 364.514 416.13 364.59C419.42 364.59 421.61 362.9 423.38 360.46C423.8 359.87 424.56 358.86 425.65 358.86C426.16 358.861 426.659 359.007 427.09 359.28L434.34 364.33C434.714 364.508 435.036 364.78 435.273 365.12C435.51 365.461 435.653 365.857 435.69 366.27C435.657 366.748 435.509 367.211 435.26 367.62C432.06 374.28 423.63 378.16 415.26 378.16C402 378.16 393 368.3 393 356.24C393 343.77 402.78 333.91 415.76 333.91C423.93 333.91 432.11 337.78 435.31 344.44" fill="#202A44"/>
<path d="M452.21 351.1H466C465.41 347.73 462.29 345.88 459.09 345.88C455.89 345.88 452.77 347.73 452.18 351.1M467.18 361.64C467.6 361.05 468.36 360.04 469.45 360.04C469.96 360.041 470.459 360.187 470.89 360.46L478.05 364.93C478.426 365.08 478.753 365.333 478.992 365.66C479.231 365.987 479.372 366.376 479.4 366.78C479.364 367.256 479.22 367.717 478.98 368.13C475.98 374.53 467.98 378.13 459.51 378.13C445.77 378.13 437.17 368.43 437.17 356.3C437.17 343.82 446.36 333.88 459.26 333.88C472.57 333.88 480.16 344.5 480.16 354.7V356.47C480.16 357.65 479.74 358.91 477.88 358.91H451.88C452.13 362.7 455.08 365.74 459.63 365.74C461.137 365.728 462.618 365.345 463.942 364.625C465.266 363.905 466.392 362.869 467.22 361.61" fill="#202A44"/>
<path d="M246.49 427.73C246.41 428.02 246.33 428.15 246.03 428.15H242.14C241.85 428.15 241.76 428.02 241.68 427.73L231.37 399C231.28 398.71 231.37 398.58 231.7 398.58H235C235.3 398.58 235.42 398.71 235.51 399L244.09 423.94L252.67 399C252.75 398.71 252.88 398.58 253.17 398.58H256.47C256.76 398.58 256.89 398.71 256.81 399L246.49 427.73Z" fill="#202A44"/>
<path d="M261 407.36C261 407.06 261.13 406.94 261.42 406.94H263.87C264.17 406.94 264.3 407.06 264.3 407.36V427.73C264.3 428.03 264.17 428.15 263.87 428.15H261.42C261.13 428.15 261 428.03 261 427.73V407.36ZM260.4 399C260.4 398.71 260.53 398.58 260.82 398.58H264.46C264.75 398.58 264.88 398.71 264.88 399V402.64C264.88 402.93 264.75 403.06 264.46 403.06H260.82C260.53 403.06 260.4 402.93 260.4 402.64V399Z" fill="#202A44"/>
<path d="M277.51 428.57C272.57 428.57 268.6 425.66 268.6 421.69C268.592 421.633 268.598 421.574 268.616 421.519C268.634 421.464 268.664 421.414 268.705 421.372C268.745 421.331 268.795 421.299 268.85 421.279C268.904 421.26 268.963 421.253 269.02 421.26H271.72C272.02 421.26 272.1 421.39 272.15 421.69C272.48 424.14 274.47 425.45 277.64 425.45C280.47 425.45 282.54 424.56 282.54 422.36C282.54 420.16 280.68 419.36 276.37 418.73C271.3 417.93 269.15 416.28 269.15 412.56C269.15 408.67 272.7 406.56 277.15 406.56C281.88 406.56 284.79 408.96 285.3 412.64C285.309 412.697 285.304 412.755 285.286 412.81C285.267 412.865 285.237 412.915 285.196 412.956C285.155 412.996 285.105 413.027 285.05 413.045C284.996 413.063 284.937 413.068 284.88 413.06H282.51C282.22 413.06 282.18 412.94 282.09 412.64C281.46 410.57 279.3 409.64 277.02 409.64C274.31 409.64 272.41 410.57 272.41 412.47C272.41 414.55 274.1 415.26 278.41 416.02C282.47 416.74 286.02 417.93 286.02 421.94C286.02 426.21 282.47 428.57 277.52 428.57" fill="#202A44"/>
<path d="M298.81 417.93C295.81 417.93 293.49 419.02 293.49 421.64C293.49 424.1 295.18 425.45 298.01 425.45C298.886 425.495 299.762 425.355 300.581 425.039C301.399 424.722 302.142 424.237 302.76 423.614C303.378 422.991 303.858 422.245 304.168 421.424C304.478 420.603 304.612 419.726 304.56 418.85C302.71 418.217 300.765 417.906 298.81 417.93ZM291.16 413.23C290.99 413.23 290.87 413.15 290.87 412.98C290.854 412.84 290.854 412.7 290.87 412.56C291.72 409.35 294.46 406.51 299.41 406.51C304.36 406.51 307.82 409.51 307.82 413.91V424.1C307.686 425.354 307.933 426.619 308.53 427.73C308.58 427.789 308.612 427.863 308.62 427.94C308.62 428.11 308.49 428.15 308.28 428.15H305C304.71 428.15 304.58 428.03 304.58 427.73V425.53C303.736 426.532 302.67 427.324 301.468 427.845C300.265 428.366 298.958 428.6 297.65 428.53C293.97 428.53 290.04 426.34 290.04 421.82C290.04 417.12 293.85 414.76 298.62 414.76C300.653 414.791 302.673 415.104 304.62 415.69V414.5C304.62 411.34 302.76 409.6 299.51 409.6C298.443 409.53 297.381 409.804 296.482 410.382C295.582 410.959 294.891 411.811 294.51 412.81C294.475 412.934 294.396 413.042 294.287 413.112C294.178 413.182 294.048 413.209 293.92 413.19L291.16 413.23Z" fill="#202A44"/>
<path d="M334.19 398.15C340.57 398.15 344.19 402.08 344.33 406.39C344.33 406.68 344.2 406.81 343.9 406.81H341.2C340.91 406.81 340.78 406.68 340.78 406.39C340.61 403.47 337.78 401.53 334.19 401.53C330.6 401.53 327.8 403.13 327.8 405.88C327.8 409.05 331.19 410.23 335.62 411.42C341.03 412.85 345.3 414.84 345.3 419.53C345.3 425.62 340.78 428.53 334.4 428.53C328.27 428.53 323.49 424.73 323.49 419.15C323.49 418.86 323.62 418.73 323.92 418.73H326.62C326.92 418.73 327.04 418.86 327.04 419.15C327.17 422.58 330.04 425.15 334.4 425.15C338.96 425.15 341.75 423.46 341.75 419.7C341.75 416.7 338.12 415.6 334.02 414.55C328.23 413.07 324.26 411 324.26 406.01C324.26 400.81 328.9 398.11 334.19 398.11" fill="#202A44"/>
<path d="M359.79 425.45C364.15 425.45 367.11 422.28 367.11 417.54C367.11 412.8 364.11 409.64 359.79 409.64C355.47 409.64 352.48 412.81 352.48 417.54C352.48 422.27 355.48 425.45 359.79 425.45ZM359.79 406.51C365.88 406.51 370.57 410.82 370.57 417.51C370.57 424.2 365.88 428.51 359.79 428.51C353.7 428.51 349.02 424.2 349.02 417.51C349.02 410.82 353.71 406.51 359.79 406.51Z" fill="#202A44"/>
<path d="M378.29 398.57H375.83C375.598 398.57 375.41 398.758 375.41 398.99V427.73C375.41 427.962 375.598 428.15 375.83 428.15H378.29C378.522 428.15 378.71 427.962 378.71 427.73V398.99C378.71 398.758 378.522 398.57 378.29 398.57Z" fill="#202A44"/>
<path d="M402 427.73C402 428.02 401.87 428.15 401.58 428.15H399.13C398.83 428.15 398.7 428.02 398.7 427.73V425.32C397.856 426.357 396.787 427.188 395.574 427.751C394.361 428.314 393.037 428.594 391.7 428.57C387.26 428.57 384.34 425.83 384.34 420.88V407.36C384.34 407.06 384.47 406.94 384.77 406.94H387.22C387.51 406.94 387.64 407.06 387.64 407.36V420.36C387.64 423.78 389.42 425.43 392.46 425.43C396.01 425.43 398.71 422.85 398.71 417.73V407.36C398.71 407.06 398.84 406.94 399.14 406.94H401.59C401.88 406.94 402.01 407.06 402.01 407.36L402 427.73Z" fill="#202A44"/>
<path d="M421.23 406.94C421.53 406.94 421.65 407.06 421.65 407.36V409.64C421.65 409.94 421.53 410.06 421.23 410.06H414.23V421.86C414.23 424.22 415.33 425.45 417.57 425.45C418.933 425.495 420.291 425.278 421.57 424.81C421.661 424.765 421.76 424.738 421.86 424.73C422.07 424.73 422.16 424.9 422.16 425.15V427.15C422.16 427.53 422.16 427.74 421.82 427.87C420.368 428.372 418.837 428.612 417.3 428.58C413.3 428.58 410.92 426.18 410.92 422.16V410.06H407.16C406.86 410.06 406.73 409.94 406.73 409.64V407.36C406.73 407.06 406.86 406.94 407.16 406.94H410.92V400.85C410.92 400.56 411.04 400.43 411.34 400.43H413.79C414.09 400.43 414.21 400.56 414.21 400.85V406.94H421.23Z" fill="#202A44"/>
<path d="M427 407.36C427 407.06 427.12 406.94 427.42 406.94H429.87C430.17 406.94 430.29 407.06 430.29 407.36V427.73C430.29 428.03 430.17 428.15 429.87 428.15H427.42C427.12 428.15 427 428.03 427 427.73V407.36ZM426.4 398.99C426.4 398.7 426.53 398.57 426.83 398.57H430.46C430.76 398.57 430.88 398.7 430.88 398.99V402.63C430.88 402.92 430.76 403.05 430.46 403.05H426.83C426.53 403.05 426.4 402.92 426.4 402.63V398.99Z" fill="#202A44"/>
<path d="M445.7 425.45C450.05 425.45 453.01 422.28 453.01 417.54C453.01 412.8 450.01 409.64 445.7 409.64C441.39 409.64 438.39 412.81 438.39 417.54C438.39 422.27 441.34 425.45 445.7 425.45ZM445.7 406.51C451.78 406.51 456.47 410.82 456.47 417.51C456.47 424.2 451.78 428.51 445.7 428.51C439.62 428.51 434.92 424.2 434.92 417.51C434.92 410.82 439.61 406.51 445.7 406.51Z" fill="#202A44"/>
<path d="M460.72 407.36C460.72 407.06 460.84 406.94 461.14 406.94H463.59C463.89 406.94 464.01 407.06 464.01 407.36V409.77C464.852 408.729 465.92 407.895 467.133 407.33C468.346 406.765 469.672 406.485 471.01 406.51C475.45 406.51 478.36 409.26 478.36 414.21V427.73C478.36 428.03 478.24 428.15 477.94 428.15H475.49C475.19 428.15 475.07 428.03 475.07 427.73V414.73C475.07 411.31 473.29 409.66 470.25 409.66C466.7 409.66 463.99 412.24 463.99 417.35V427.75C463.99 428.05 463.87 428.17 463.57 428.17H461.12C460.82 428.17 460.7 428.05 460.7 427.75L460.72 407.36Z" fill="#202A44"/>
<path d="M130.48 191C129.188 187.879 128.934 184.426 129.756 181.149C130.578 177.873 132.432 174.949 135.045 172.807C137.657 170.666 140.888 169.422 144.262 169.258C147.636 169.095 150.972 170.021 153.779 171.9C156.586 173.779 158.714 176.511 159.848 179.692C160.983 182.874 161.064 186.336 160.08 189.567C159.096 192.798 157.098 195.626 154.383 197.635C151.667 199.643 148.378 200.725 145 200.72C141.89 200.715 138.851 199.79 136.267 198.06C133.683 196.33 131.669 193.873 130.48 191Z" fill="#FFC300"/>
<path d="M290.16 257.26C288.875 254.141 288.627 250.691 289.453 247.42C290.279 244.149 292.134 241.231 294.745 239.095C297.356 236.959 300.585 235.719 303.955 235.558C307.324 235.397 310.656 236.324 313.459 238.201C316.262 240.079 318.387 242.808 319.52 245.985C320.654 249.162 320.736 252.62 319.754 255.847C318.772 259.075 316.779 261.901 314.068 263.909C311.358 265.918 308.073 267.001 304.7 267C301.585 267.003 298.539 266.079 295.95 264.346C293.361 262.614 291.346 260.151 290.16 257.27" fill="#202A44"/>
<path d="M258 276.23C239.878 276.278 221.927 272.732 205.184 265.798C188.441 258.863 173.24 248.678 160.46 235.83C157.509 232.88 155.852 228.878 155.852 224.705C155.852 220.532 157.509 216.531 160.46 213.58C163.41 210.63 167.412 208.972 171.585 208.972C175.757 208.972 179.759 210.63 182.71 213.58C192.574 223.498 204.307 231.362 217.231 236.716C230.154 242.07 244.011 244.807 258 244.77C262.172 244.77 266.173 246.427 269.122 249.377C272.072 252.327 273.73 256.328 273.73 260.5C273.73 264.672 272.072 268.673 269.122 271.623C266.173 274.573 262.172 276.23 258 276.23Z" fill="#202A44"/>
<path d="M333.29 235.83C330.71 233.256 329.102 229.866 328.741 226.239C328.381 222.612 329.289 218.973 331.311 215.94C333.334 212.908 336.345 210.671 339.832 209.611C343.32 208.551 347.067 208.733 350.435 210.126C353.803 211.519 356.583 214.038 358.302 217.251C360.021 220.465 360.572 224.176 359.862 227.751C359.151 231.326 357.223 234.543 354.405 236.856C351.587 239.168 348.055 240.431 344.41 240.43C340.241 240.43 336.241 238.776 333.29 235.83Z" fill="#202A44"/>
<path d="M130.48 85.24C129.19 88.3615 128.939 91.8149 129.763 95.0902C130.587 98.3655 132.442 101.289 135.056 103.428C137.669 105.568 140.901 106.81 144.274 106.972C147.648 107.134 150.984 106.206 153.789 104.326C156.595 102.446 158.721 99.7129 159.855 96.5314C160.988 93.3498 161.068 89.8882 160.082 86.6578C159.097 83.4274 157.099 80.5996 154.383 78.5922C151.667 76.5847 148.377 75.5041 145 75.51C141.884 75.5095 138.838 76.4339 136.247 78.166C133.657 79.8982 131.639 82.3601 130.45 85.24" fill="#FFC300"/>
<path d="M290.16 19C288.88 22.1205 288.637 25.5699 289.467 28.8392C290.296 32.1085 292.155 35.0245 294.768 37.157C297.381 39.2895 300.611 40.5256 303.98 40.6829C307.349 40.8402 310.68 39.9103 313.48 38.0304C316.281 36.1506 318.403 33.4204 319.533 30.2426C320.664 27.0648 320.743 23.6078 319.759 20.3816C318.775 17.1554 316.781 14.3308 314.069 12.3247C311.358 10.3186 308.073 9.23719 304.7 9.24C301.582 9.23993 298.534 10.168 295.944 11.9062C293.355 13.6443 291.341 16.1137 290.16 19Z" fill="#3874FD"/>
<path d="M258 -5.11846e-06C239.879 -0.0481192 221.927 3.49768 205.185 10.4322C188.442 17.3668 173.241 27.5525 160.46 40.4C157.545 43.3565 155.917 47.3458 155.931 51.498C155.945 55.6502 157.6 59.6284 160.535 62.5651C163.471 65.5018 167.448 67.1588 171.6 67.1747C175.753 67.1906 179.743 65.5641 182.7 62.65C192.566 52.7304 204.301 44.866 217.226 39.5123C230.151 34.1585 244.01 31.4216 258 31.46C262.172 31.46 266.173 29.8027 269.123 26.8528C272.073 23.9028 273.73 19.9019 273.73 15.73C273.73 11.5581 272.073 7.55715 269.123 4.6072C266.173 1.65726 262.172 -5.11846e-06 258 -5.11846e-06Z" fill="#3874FD"/>
<path d="M333.29 40.4001C330.71 42.9743 329.102 46.3638 328.741 49.9907C328.381 53.6176 329.289 57.2573 331.311 60.2895C333.334 63.3217 336.345 65.5587 339.832 66.6189C343.32 67.6792 347.067 67.4972 350.435 66.104C353.803 64.7107 356.583 62.1925 358.302 58.9785C360.021 55.7646 360.572 52.0539 359.862 48.4791C359.151 44.9042 357.223 41.6865 354.405 39.3745C351.587 37.0624 348.055 35.7992 344.41 35.8C340.241 35.8 336.241 37.4544 333.29 40.4001Z" fill="#3874FD"/>
<path d="M135.75 122.39C132.639 122.396 129.599 123.324 127.016 125.058C124.432 126.791 122.421 129.251 121.236 132.128C120.051 135.005 119.745 138.168 120.358 141.218C120.971 144.268 122.474 147.068 124.678 149.264C126.882 151.46 129.688 152.952 132.74 153.553C135.793 154.155 138.955 153.837 141.827 152.641C144.699 151.445 147.152 149.424 148.875 146.834C150.599 144.244 151.516 141.201 151.51 138.09C151.507 136.024 151.097 133.979 150.304 132.071C149.51 130.164 148.348 128.431 146.884 126.973C145.421 125.515 143.684 124.36 141.773 123.573C139.863 122.787 137.816 122.385 135.75 122.39Z" fill="#FFC300"/>
<path d="M204.26 416.19H213.89L209.07 402.84L204.26 416.19ZM215.12 419.57H203L200.09 427.73C200 428.03 199.92 428.15 199.58 428.15H196.75C196.45 428.15 196.28 428.03 196.28 427.73C196.276 427.644 196.293 427.558 196.33 427.48L206.84 399C206.92 398.71 206.96 398.58 207.26 398.58H210.89C211.19 398.58 211.23 398.71 211.31 399L221.79 427.49C221.827 427.568 221.844 427.654 221.84 427.74C221.84 428.04 221.67 428.16 221.37 428.16H218.54C218.2 428.16 218.12 428.04 218.03 427.74L215.12 419.57Z" fill="#202A44"/>
</svg>
